<?xml version="1.0" encoding="UTF-8" standalone="no"?>
<!DOCTYPE svg PUBLIC "-//W3C//DTD SVG 1.1//EN" "http://www.w3.org/Graphics/SVG/1.1/DTD/svg11.dtd">
<svg xmlns="http://www.w3.org/2000/svg" version="1.1" viewBox="0.00 0.00 460.00 110.00">
<path fill="#000000" d="
  M 125.21 52.76
  L 125.07 43.85
  Q 125.06 43.00 125.91 43.00
  L 136.37 42.99
  Q 136.89 42.99 137.22 43.38
  Q 137.68 43.91 137.28 44.49
  Q 136.96 44.95 137.06 45.50
  Q 137.11 45.78 137.27 45.95
  Q 137.70 46.43 138.17 45.99
  Q 145.37 39.23 155.00 43.80
  Q 157.60 45.03 159.15 47.64
  A 0.70 0.70 0.0 0 0 160.29 47.73
  Q 165.73 41.24 173.01 42.10
  Q 182.85 43.26 184.69 51.89
  Q 185.01 53.44 185.65 51.99
  Q 186.07 51.02 186.72 50.17
  Q 192.83 42.04 202.57 41.98
  C 214.41 41.90 221.70 49.36 221.47 61.47
  A 0.70 0.69 -89.1 0 1 220.78 62.15
  L 196.45 62.18
  A 0.55 0.54 86.7 0 0 195.91 62.79
  C 196.19 65.32 197.45 67.57 199.88 68.55
  Q 206.36 71.15 211.42 66.22
  A 1.36 1.35 -53.8 0 1 212.97 65.98
  L 220.36 69.66
  A 0.40 0.39 -62.5 0 1 220.53 70.21
  C 215.92 78.18 205.23 80.44 196.93 78.15
  Q 189.65 76.15 185.61 69.04
  Q 184.79 67.60 184.82 69.25
  L 184.94 77.27
  Q 184.95 78.00 184.23 78.00
  L 173.31 78.00
  Q 172.76 78.00 172.76 77.46
  Q 172.76 67.46 172.77 57.70
  C 172.78 50.02 161.25 49.34 161.14 57.32
  Q 160.98 68.64 161.16 77.23
  A 0.74 0.74 0.0 0 1 160.42 77.99
  L 149.51 78.00
  Q 148.86 78.00 148.87 77.35
  Q 148.95 68.07 148.92 58.50
  Q 148.89 52.00 143.38 51.68
  C 139.77 51.47 137.41 53.65 137.32 57.26
  Q 137.04 67.27 137.34 77.28
  A 0.69 0.68 89.2 0 1 136.66 77.99
  L 125.86 78.00
  A 0.78 0.78 0.0 0 1 125.08 77.21
  L 125.16 68.27
  Q 125.18 66.31 124.30 68.06
  C 116.94 82.65 92.34 83.04 85.44 67.87
  Q 84.95 66.79 84.86 67.97
  Q 84.58 72.04 84.79 77.20
  A 0.77 0.77 0.0 0 1 84.02 78.00
  L 72.42 78.00
  Q 71.83 78.00 71.83 77.42
  L 71.90 55.92
  Q 71.90 55.43 71.42 55.43
  L 54.32 55.42
  Q 53.74 55.42 53.74 55.99
  L 53.75 77.50
  A 0.50 0.50 0.0 0 1 53.25 78.00
  L 41.42 78.00
  Q 40.85 78.00 40.85 77.43
  L 40.85 22.32
  A 0.58 0.58 0.0 0 1 41.43 21.74
  L 53.23 21.71
  Q 53.74 21.71 53.74 22.23
  L 53.75 43.58
  Q 53.75 44.16 54.34 44.16
  L 71.50 44.13
  A 0.38 0.38 0.0 0 0 71.88 43.75
  L 71.83 22.32
  Q 71.83 21.71 72.43 21.71
  L 84.10 21.71
  Q 84.74 21.71 84.74 22.35
  L 84.74 52.29
  Q 84.74 54.56 85.82 52.56
  C 93.66 38.01 116.60 38.54 124.31 52.99
  Q 125.24 54.74 125.21 52.76
  Z
  M 196.44 55.51
  L 209.34 55.45
  A 0.13 0.13 0.0 0 0 209.47 55.32
  L 209.47 55.24
  A 6.38 5.43 -0.3 0 0 203.07 49.84
  L 202.67 49.84
  A 6.38 5.43 -0.3 0 0 196.31 55.30
  L 196.31 55.38
  A 0.13 0.13 0.0 0 0 196.44 55.51
  Z
  M 113.13 60.52
  A 8.25 8.25 0.0 0 0 104.88 52.27
  A 8.25 8.25 0.0 0 0 96.63 60.52
  A 8.25 8.25 0.0 0 0 104.88 68.77
  A 8.25 8.25 0.0 0 0 113.13 60.52
  Z"
/>
<path fill="#000000" d="
  M 274.02 63.80
  Q 266.72 76.29 252.35 77.77
  Q 246.98 78.32 233.49 77.97
  Q 232.85 77.96 232.85 77.32
  L 232.84 22.43
  Q 232.84 21.78 233.49 21.76
  Q 244.13 21.52 251.88 21.88
  Q 259.74 22.24 266.64 27.49
  Q 277.18 35.51 277.65 48.83
  Q 277.69 50.18 278.56 49.14
  Q 286.08 40.12 298.42 42.46
  Q 307.16 44.12 310.98 52.17
  A 0.18 0.18 0.0 0 0 311.29 52.19
  Q 319.30 39.40 334.50 42.68
  Q 337.33 43.29 339.62 44.80
  A 0.88 0.86 30.3 0 1 339.92 45.91
  L 336.59 52.57
  Q 336.34 53.06 335.80 52.99
  C 334.66 52.83 333.67 52.23 332.49 52.05
  C 316.95 49.78 319.70 74.53 335.12 68.10
  Q 336.27 67.62 336.80 68.74
  L 339.83 75.05
  Q 340.36 76.15 339.23 76.61
  Q 322.58 83.54 312.26 70.55
  A 0.61 0.61 0.0 0 0 311.26 70.61
  C 305.69 79.59 291.28 81.56 282.83 75.81
  C 278.18 72.66 276.22 69.09 274.66 63.88
  Q 274.43 63.10 274.02 63.80
  Z
  M 245.78 33.47
  L 245.72 66.21
  A 0.32 0.32 0.0 0 0 246.04 66.53
  L 248.09 66.54
  A 15.87 15.61 -89.9 0 0 263.73 50.70
  L 263.73 49.06
  A 15.87 15.61 -89.9 0 0 248.15 33.16
  L 246.10 33.15
  A 0.32 0.32 0.0 0 0 245.78 33.47
  Z
  M 287.45 55.47
  L 300.35 55.49
  A 0.13 0.13 0.0 0 0 300.48 55.36
  L 300.48 55.28
  A 6.48 5.43 0.1 0 0 294.00 49.84
  L 293.80 49.84
  A 6.48 5.43 0.1 0 0 287.32 55.26
  L 287.32 55.34
  A 0.13 0.13 0.0 0 0 287.45 55.47
  Z
  M 286.97 63.60
  Q 288.01 67.27 290.64 68.43
  Q 297.05 71.28 302.50 66.20
  A 1.31 1.31 0.0 0 1 303.98 65.99
  L 310.36 69.18
  Q 312.01 70.01 311.07 68.42
  Q 309.69 66.07 309.44 63.01
  A 0.94 0.93 87.7 0 0 308.51 62.15
  L 288.04 62.18
  Q 286.56 62.18 286.97 63.60
  Z"
/>
<path fill="#000000" d="
  M 377.09 67.44
  Q 373.06 75.84 364.23 78.15
  C 351.20 81.58 336.13 75.11 336.45 59.98
  C 336.75 46.25 351.05 39.95 362.83 42.57
  Q 372.68 44.77 377.02 53.33
  Q 377.52 54.31 377.51 53.21
  L 377.44 43.65
  A 0.66 0.66 0.0 0 1 378.10 42.99
  L 388.78 43.00
  Q 389.56 43.00 389.55 43.78
  L 389.51 46.72
  Q 389.48 48.16 390.42 47.06
  Q 397.41 38.96 407.45 43.79
  A 0.68 0.68 0.0 0 1 407.77 44.70
  L 403.37 53.49
  A 0.79 0.79 0.0 0 1 402.28 53.83
  C 398.16 51.57 392.51 51.87 390.41 56.32
  Q 389.34 58.58 389.43 62.76
  Q 389.61 70.79 389.49 77.47
  Q 389.49 77.99 388.97 77.99
  L 378.22 78.00
  A 0.79 0.78 0.4 0 1 377.43 77.21
  L 377.52 67.54
  Q 377.53 66.54 377.09 67.44
  Z
  M 365.65 60.53
  A 8.25 8.25 0.0 0 0 357.40 52.28
  A 8.25 8.25 0.0 0 0 349.15 60.53
  A 8.25 8.25 0.0 0 0 357.40 68.78
  A 8.25 8.25 0.0 0 0 365.65 60.53
  Z"
/>
<circle fill="#000000" cx="413.01" cy="71.22" r="7.79"/>
<path fill="#000000" d="
  M 245.16 89.12
  Q 247.14 88.11 248.73 89.66
  A 1.12 1.12 0.0 0 1 249.07 90.44
  L 249.20 95.23
  Q 249.22 95.76 248.68 95.77
  L 248.18 95.78
  Q 247.89 95.78 247.88 95.49
  L 247.81 91.50
  Q 247.79 89.95 246.25 90.03
  L 245.67 90.05
  Q 244.44 90.11 244.44 91.33
  L 244.41 95.06
  A 0.57 0.56 85.2 0 1 243.94 95.62
  L 243.57 95.69
  A 0.52 0.52 0.0 0 1 242.97 95.18
  L 242.95 86.58
  Q 242.95 86.09 243.43 86.16
  L 243.93 86.23
  A 0.65 0.65 0.0 0 1 244.49 86.92
  L 244.38 88.60
  Q 244.32 89.54 245.16 89.12
  Z"
/>
<path fill="#000000" d="
  M 150.62 95.18
  L 150.50 87.26
  Q 150.49 86.66 151.09 86.56
  Q 153.47 86.17 155.94 86.54
  A 0.53 0.52 8.0 0 1 156.38 87.12
  Q 156.36 87.32 156.19 87.47
  Q 156.04 87.60 155.85 87.60
  L 152.80 87.70
  Q 151.82 87.73 151.80 88.71
  L 151.78 89.35
  Q 151.76 90.44 152.85 90.48
  L 155.29 90.58
  Q 155.74 90.59 155.70 91.04
  L 155.67 91.38
  Q 155.63 91.77 155.24 91.77
  L 152.50 91.77
  A 0.71 0.71 0.0 0 0 151.78 92.50
  L 151.86 95.29
  A 0.47 0.47 0.0 0 1 151.21 95.73
  L 150.92 95.62
  Q 150.63 95.49 150.62 95.18
  Z"
/>
<path fill="#000000" d="
  M 216.43 87.72
  L 215.67 87.42
  Q 214.76 87.05 215.69 86.72
  L 216.11 86.57
  A 0.49 0.48 83.5 0 1 216.75 87.08
  L 216.71 87.55
  A 0.21 0.20 -76.0 0 1 216.43 87.72
  Z"
/>
<ellipse fill="#000000" cx="0.00" cy="0.00" transform="translate(260.63,87.11) rotate(-0.2)" rx="0.75" ry="0.56"/>
<path fill="#000000" d="
  M 185.55 89.32
  Q 186.69 88.51 188.06 88.90
  Q 188.27 88.96 188.27 89.17
  Q 188.26 89.78 187.65 89.77
  C 184.43 89.69 185.23 93.08 185.15 95.08
  Q 185.13 95.65 184.57 95.74
  L 184.26 95.79
  A 0.37 0.36 84.8 0 1 183.83 95.43
  L 183.82 89.58
  Q 183.81 88.86 184.52 88.98
  Q 184.81 89.03 185.01 89.26
  A 0.40 0.40 0.0 0 0 185.55 89.32
  Z"
/>
<path fill="#000000" d="
  M 199.68 89.07
  Q 201.01 89.00 202.22 88.81
  Q 204.60 88.44 204.65 90.84
  L 204.76 95.42
  Q 204.77 95.89 204.32 95.73
  L 203.53 95.45
  Q 203.17 95.32 203.24 94.93
  Q 203.62 93.04 203.36 91.12
  Q 203.19 89.92 201.98 89.96
  L 201.60 89.97
  Q 199.98 90.02 199.95 91.64
  L 199.88 95.51
  Q 199.87 95.91 199.49 95.80
  L 199.11 95.68
  A 0.65 0.65 0.0 0 1 198.65 95.06
  L 198.67 90.13
  Q 198.67 89.12 199.68 89.07
  Z"
/>
<path fill="#000000" d="
  M 231.16 93.51
  L 228.50 92.45
  A 1.82 1.82 0.0 0 1 228.16 89.24
  Q 230.04 87.99 231.83 89.40
  Q 233.30 90.57 231.45 90.21
  L 229.53 89.84
  A 0.74 0.74 0.0 0 0 228.65 90.62
  Q 228.68 91.00 228.93 91.27
  C 229.67 92.04 231.33 92.02 232.34 93.00
  Q 232.69 93.34 232.66 93.84
  C 232.45 96.76 228.57 96.49 227.03 94.88
  Q 226.81 94.65 227.03 94.43
  L 227.44 94.03
  Q 227.52 93.95 227.61 94.02
  Q 229.65 95.50 231.25 94.55
  Q 232.26 93.95 231.16 93.51
  Z"
/>
<path fill="#000000" d="
  M 275.30 89.97
  Q 275.14 90.00 274.91 90.03
  Q 273.40 90.24 273.41 91.76
  L 273.44 94.99
  Q 273.44 95.62 272.81 95.68
  L 272.44 95.71
  Q 271.93 95.75 271.93 95.24
  L 271.92 89.69
  Q 271.92 89.06 272.55 89.13
  Q 273.71 89.24 274.84 88.90
  C 278.89 87.67 278.43 92.80 278.21 95.16
  Q 278.15 95.74 277.57 95.73
  L 277.31 95.72
  A 0.46 0.46 0.0 0 1 276.85 95.25
  L 276.90 91.38
  Q 276.92 89.74 275.30 89.97
  Z"
/>
<path fill="#000000" d="
  M 293.69 95.76
  C 286.43 97.80 287.98 86.10 294.07 89.14
  A 0.84 0.83 -48.9 0 0 294.90 89.08
  Q 295.04 88.99 295.20 88.95
  A 0.72 0.72 0.0 0 1 296.11 89.69
  Q 295.98 91.96 296.12 94.67
  C 296.31 98.47 293.08 99.45 290.01 98.14
  Q 289.48 97.91 289.88 97.49
  L 290.09 97.27
  A 0.50 0.49 30.9 0 1 290.62 97.14
  Q 292.97 98.02 294.25 96.72
  Q 295.76 95.18 293.69 95.76
  Z
  M 294.86 92.38
  A 2.39 2.39 0.0 0 0 292.47 89.99
  A 2.39 2.39 0.0 0 0 290.08 92.38
  A 2.39 2.39 0.0 0 0 292.47 94.77
  A 2.39 2.39 0.0 0 0 294.86 92.38
  Z"
/>
<path fill="#000000" d="
  M 310.55 93.58
  L 307.89 92.49
  Q 307.00 92.13 306.75 91.20
  Q 306.28 89.43 308.06 88.88
  Q 309.84 88.34 311.34 89.47
  Q 311.66 89.70 311.68 90.11
  A 0.34 0.34 0.0 0 1 311.24 90.45
  L 309.57 89.92
  A 1.41 1.40 -61.1 0 0 308.06 90.36
  L 307.83 90.63
  A 0.40 0.39 30.6 0 0 307.99 91.25
  L 310.96 92.43
  Q 311.59 92.68 311.76 93.33
  Q 312.21 95.13 310.58 95.78
  Q 308.47 96.62 306.19 95.01
  Q 305.76 94.70 306.24 94.47
  C 307.90 93.68 308.92 96.06 310.70 94.37
  Q 311.23 93.86 310.55 93.58
  Z"
/>
<path fill="#000000" d="
  M 167.50 89.18
  L 168.03 89.41
  Q 168.43 89.59 168.43 90.04
  L 168.38 93.41
  A 1.43 1.42 -86.0 0 0 169.62 94.85
  Q 169.82 94.88 170.01 94.88
  A 1.86 1.85 -89.8 0 0 171.86 93.03
  L 171.89 89.29
  A 0.27 0.26 -90.0 0 1 172.15 89.02
  L 172.52 89.02
  Q 173.04 89.02 173.08 89.54
  C 173.32 92.21 173.74 96.37 169.61 96.03
  C 166.45 95.77 166.98 91.79 166.98 89.52
  A 0.37 0.37 0.0 0 1 167.50 89.18
  Z"
/>
<rect fill="#000000" x="-0.57" y="-3.33" transform="translate(216.24,92.36) rotate(-1.5)" width="1.14" height="6.66" rx="0.43"/>
<rect fill="#000000" x="-0.74" y="-3.30" transform="translate(260.63,92.41) rotate(0.4)" width="1.48" height="6.60" rx="0.52"/>
</svg>
